<mxfile host="app.diagrams.net" agent="Mozilla/5.0 (X11; Linux x86_64) AppleWebKit/537.36 (KHTML, like Gecko) Chrome/141.0.0.0 Safari/537.36" version="28.2.7">
  <diagram name="Страница — 1" id="8GmCdWIh2RvpjUtEzQ7G">
    <mxGraphModel dx="1491" dy="729" grid="1" gridSize="10" guides="1" tooltips="1" connect="1" arrows="1" fold="1" page="1" pageScale="1" pageWidth="827" pageHeight="1169" math="0" shadow="0">
      <root>
        <mxCell id="0" />
        <mxCell id="1" parent="0" />
        <mxCell id="hqPv4LxQJIXuMZ807FkV-1" style="edgeStyle=orthogonalEdgeStyle;rounded=0;orthogonalLoop=1;jettySize=auto;html=1;" edge="1" parent="1" source="hqPv4LxQJIXuMZ807FkV-2" target="hqPv4LxQJIXuMZ807FkV-4">
          <mxGeometry relative="1" as="geometry" />
        </mxCell>
        <mxCell id="hqPv4LxQJIXuMZ807FkV-2" value="&lt;b&gt;Initial Search&lt;/b&gt;&lt;div&gt;Query combining terms from LLMs and Genetics/Medicine&lt;br&gt;&lt;div&gt;&lt;br&gt;&lt;/div&gt;&lt;div&gt;&lt;div&gt;&lt;span style=&quot;font-size: 12px;&quot;&gt;Records identified: 57,558, from which:&lt;/span&gt;&lt;/div&gt;&lt;div&gt;PubMed: 34,923&amp;nbsp;&lt;/div&gt;&lt;div&gt;arXiv: 5,972&lt;/div&gt;biorxiv: 11,213&lt;div&gt;medrxiv: 5,450&lt;br&gt;&lt;/div&gt;&lt;/div&gt;&lt;/div&gt;" style="rounded=0;whiteSpace=wrap;html=1;" vertex="1" parent="1">
          <mxGeometry x="319" y="90" width="401" height="130" as="geometry" />
        </mxCell>
        <mxCell id="hqPv4LxQJIXuMZ807FkV-3" style="edgeStyle=orthogonalEdgeStyle;rounded=0;orthogonalLoop=1;jettySize=auto;html=1;entryX=0.5;entryY=0;entryDx=0;entryDy=0;" edge="1" parent="1" source="hqPv4LxQJIXuMZ807FkV-4" target="hqPv4LxQJIXuMZ807FkV-6">
          <mxGeometry relative="1" as="geometry" />
        </mxCell>
        <mxCell id="hqPv4LxQJIXuMZ807FkV-4" value="&lt;b&gt;Automated duplicates merging&lt;/b&gt;&lt;div&gt;&lt;br&gt;&lt;/div&gt;&lt;div&gt;&lt;div&gt;&lt;span style=&quot;background-color: initial;&quot;&gt;Records after duplicates removed: 51,613&lt;/span&gt;&lt;br&gt;&lt;/div&gt;&lt;/div&gt;" style="rounded=0;whiteSpace=wrap;html=1;" vertex="1" parent="1">
          <mxGeometry x="320" y="240" width="400" height="60" as="geometry" />
        </mxCell>
        <mxCell id="hqPv4LxQJIXuMZ807FkV-5" style="edgeStyle=orthogonalEdgeStyle;rounded=0;orthogonalLoop=1;jettySize=auto;html=1;exitX=0.5;exitY=1;exitDx=0;exitDy=0;entryX=0.44;entryY=0;entryDx=0;entryDy=0;entryPerimeter=0;" edge="1" parent="1" target="hqPv4LxQJIXuMZ807FkV-21">
          <mxGeometry relative="1" as="geometry">
            <mxPoint x="511" y="450.0000000000002" as="sourcePoint" />
            <mxPoint x="511" y="460" as="targetPoint" />
          </mxGeometry>
        </mxCell>
        <mxCell id="hqPv4LxQJIXuMZ807FkV-6" value="&lt;b&gt;Primary Semantic Analysis&lt;/b&gt;&lt;div&gt;&lt;div&gt;Perform frequency analysis, identify key-phrases, filter relevant articles&lt;/div&gt;&lt;div&gt;&lt;br&gt;&lt;/div&gt;&lt;div&gt;&lt;div&gt;&lt;b&gt;Key phrases&lt;/b&gt;:&lt;/div&gt;&lt;div&gt;&lt;b&gt;Group 1:&lt;/b&gt; LLM-related terms (LLM, GPT, BERT, transformer, etc.)&lt;/div&gt;&lt;div&gt;&lt;b&gt;Group 2:&lt;/b&gt; Clinical terms (clinical, syndrome, complex trait, etc.)&lt;/div&gt;&lt;div&gt;&lt;b&gt;Group 3:&lt;/b&gt; Genetics-related terms (inherited, GWAS, genome, etc.)&lt;/div&gt;&lt;div&gt;&lt;br&gt;&lt;/div&gt;&lt;div&gt;Records after initial filtering: 576&lt;/div&gt;&lt;/div&gt;&lt;/div&gt;" style="rounded=0;whiteSpace=wrap;html=1;" vertex="1" parent="1">
          <mxGeometry x="320" y="320" width="400" height="140" as="geometry" />
        </mxCell>
        <mxCell id="hqPv4LxQJIXuMZ807FkV-7" style="edgeStyle=orthogonalEdgeStyle;rounded=0;orthogonalLoop=1;jettySize=auto;html=1;exitX=0.5;exitY=1;exitDx=0;exitDy=0;entryX=0.5;entryY=0;entryDx=0;entryDy=0;" edge="1" parent="1" source="hqPv4LxQJIXuMZ807FkV-9" target="hqPv4LxQJIXuMZ807FkV-11">
          <mxGeometry relative="1" as="geometry" />
        </mxCell>
        <mxCell id="hqPv4LxQJIXuMZ807FkV-8" style="edgeStyle=orthogonalEdgeStyle;rounded=0;orthogonalLoop=1;jettySize=auto;html=1;exitX=0.75;exitY=1;exitDx=0;exitDy=0;entryX=0.5;entryY=0;entryDx=0;entryDy=0;" edge="1" parent="1" source="hqPv4LxQJIXuMZ807FkV-9" target="hqPv4LxQJIXuMZ807FkV-19">
          <mxGeometry relative="1" as="geometry" />
        </mxCell>
        <mxCell id="hqPv4LxQJIXuMZ807FkV-9" value="&lt;div&gt;&lt;b&gt;Initial Filtering&lt;/b&gt;&lt;br&gt;&lt;/div&gt;&lt;div&gt;&lt;b&gt;&lt;br&gt;&lt;/b&gt;&lt;/div&gt;&lt;div&gt;&lt;div&gt;&lt;b&gt;Classify to:&lt;/b&gt;&lt;/div&gt;&lt;div&gt;-&lt;b&gt; irrelevant&lt;/b&gt; (not related to transformers and/or diagnostics, genetics),&amp;nbsp;&lt;/div&gt;&lt;div&gt;-&lt;b&gt; partially relevant&lt;/b&gt; (it does not use LLM/transformers OR area is not genetics and diagnostics)&lt;/div&gt;&lt;div&gt;-&lt;b&gt; relevant&lt;/b&gt; (research/tool on the application of the transformers and diagnostics and genetics)&lt;/div&gt;&lt;div&gt;&lt;br&gt;&lt;/div&gt;&lt;div&gt;Result: 299 (180 partially relevant articles, 119 fully relevant articles)&lt;/div&gt;&lt;/div&gt;" style="rounded=0;whiteSpace=wrap;html=1;" vertex="1" parent="1">
          <mxGeometry x="320" y="560" width="400" height="160" as="geometry" />
        </mxCell>
        <mxCell id="hqPv4LxQJIXuMZ807FkV-10" style="edgeStyle=orthogonalEdgeStyle;rounded=0;orthogonalLoop=1;jettySize=auto;html=1;entryX=0.5;entryY=0;entryDx=0;entryDy=0;" edge="1" parent="1" source="hqPv4LxQJIXuMZ807FkV-11" target="hqPv4LxQJIXuMZ807FkV-14">
          <mxGeometry relative="1" as="geometry">
            <mxPoint x="445" y="1110" as="targetPoint" />
          </mxGeometry>
        </mxCell>
        <mxCell id="hqPv4LxQJIXuMZ807FkV-11" value="&lt;div&gt;&lt;b&gt;Final Categorization&lt;/b&gt;&lt;br&gt;&lt;/div&gt;&lt;div&gt;&lt;br&gt;&lt;/div&gt;&lt;div&gt;&lt;div&gt;&lt;span style=&quot;background-color: initial;&quot;&gt;Final set (319):&lt;/span&gt;&lt;/div&gt;&lt;div&gt;&lt;span style=&quot;background-color: initial;&quot;&gt;- partially relevant: 187&lt;/span&gt;&lt;/div&gt;&lt;div&gt;- fully relevant: 132&lt;/div&gt;&lt;/div&gt;" style="rounded=0;whiteSpace=wrap;html=1;" vertex="1" parent="1">
          <mxGeometry x="424.5" y="880" width="190" height="90" as="geometry" />
        </mxCell>
        <mxCell id="hqPv4LxQJIXuMZ807FkV-12" style="edgeStyle=orthogonalEdgeStyle;rounded=0;orthogonalLoop=1;jettySize=auto;html=1;entryX=0.5;entryY=0;entryDx=0;entryDy=0;" edge="1" parent="1" source="hqPv4LxQJIXuMZ807FkV-13" target="hqPv4LxQJIXuMZ807FkV-11">
          <mxGeometry relative="1" as="geometry" />
        </mxCell>
        <mxCell id="hqPv4LxQJIXuMZ807FkV-13" value="&lt;b&gt;Manual Addition&lt;/b&gt;&lt;br&gt;&lt;div&gt;&lt;br&gt;&lt;/div&gt;&lt;div&gt;&lt;div&gt;Manually add several relevant articles from other sources (20):&lt;/div&gt;&lt;/div&gt;&lt;div&gt;&lt;span style=&quot;background-color: initial;&quot;&gt;- &lt;b&gt;partially relevant&lt;/b&gt;: 7&lt;/span&gt;&lt;/div&gt;&lt;div&gt;- &lt;b&gt;fully relevant&lt;/b&gt;: 13&lt;/div&gt;" style="rounded=0;whiteSpace=wrap;html=1;" vertex="1" parent="1">
          <mxGeometry x="320" y="740" width="190" height="100" as="geometry" />
        </mxCell>
        <mxCell id="hqPv4LxQJIXuMZ807FkV-14" value="&lt;div&gt;&lt;b&gt;Usage in the review&lt;/b&gt;&lt;/div&gt;&lt;div&gt;&lt;b&gt;&lt;br&gt;&lt;/b&gt;&lt;/div&gt;&lt;div&gt;&lt;div&gt;&lt;span style=&quot;background-color: initial;&quot;&gt;187 articles were used&amp;nbsp;&lt;/span&gt;&lt;span style=&quot;background-color: initial;&quot;&gt;&amp;nbsp;(55&amp;nbsp;&lt;b&gt;partially relevant&lt;/b&gt; and 132&lt;/span&gt;&lt;span style=&quot;background-color: initial;&quot;&gt;&amp;nbsp;&lt;/span&gt;&lt;b style=&quot;background-color: initial;&quot;&gt;relevant&lt;/b&gt;&lt;span style=&quot;background-color: initial;&quot;&gt;)&lt;/span&gt;&lt;span style=&quot;background-color: initial;&quot;&gt;:&lt;/span&gt;&lt;/div&gt;&lt;div&gt;&lt;span style=&quot;background-color: initial;&quot;&gt;- &lt;b&gt;introduction&lt;/b&gt;: X&lt;/span&gt;&lt;/div&gt;&lt;div&gt;&lt;span style=&quot;background-color: initial;&quot;&gt;- &lt;b&gt;diagnostics &lt;/b&gt;(pre-analytics, analytics, post-analytics): X (X,X,X)&lt;/span&gt;&lt;/div&gt;&lt;div&gt;-&lt;b&gt; education&lt;/b&gt;: X&lt;/div&gt;&lt;/div&gt;&lt;div&gt;- &lt;b&gt;discussion&lt;/b&gt;: X&lt;/div&gt;&lt;div&gt;The categories and subcategories may overlap.&lt;/div&gt;" style="rounded=0;whiteSpace=wrap;html=1;" vertex="1" parent="1">
          <mxGeometry x="319" y="990" width="401" height="130" as="geometry" />
        </mxCell>
        <mxCell id="hqPv4LxQJIXuMZ807FkV-15" value="Identification" style="rounded=1;whiteSpace=wrap;html=1;rotation=-90;" vertex="1" parent="1">
          <mxGeometry x="220" y="142.5" width="140" height="25" as="geometry" />
        </mxCell>
        <mxCell id="hqPv4LxQJIXuMZ807FkV-16" value="Screening" style="rounded=1;whiteSpace=wrap;html=1;rotation=-90;" vertex="1" parent="1">
          <mxGeometry x="255" y="257.5" width="70" height="25" as="geometry" />
        </mxCell>
        <mxCell id="hqPv4LxQJIXuMZ807FkV-17" value="Eligibility" style="rounded=1;whiteSpace=wrap;html=1;rotation=-90;" vertex="1" parent="1">
          <mxGeometry x="85" y="507.75" width="410" height="23.5" as="geometry" />
        </mxCell>
        <mxCell id="hqPv4LxQJIXuMZ807FkV-18" value="Included" style="rounded=1;whiteSpace=wrap;html=1;rotation=-90;" vertex="1" parent="1">
          <mxGeometry x="93.75" y="921.25" width="392.5" height="23.5" as="geometry" />
        </mxCell>
        <mxCell id="hqPv4LxQJIXuMZ807FkV-19" value="&lt;b&gt;Excluded&lt;/b&gt;&lt;br&gt;&lt;div&gt;&lt;br&gt;&lt;/div&gt;&lt;div&gt;&lt;div&gt;Irrelevant articles: 251&lt;/div&gt;&lt;/div&gt;" style="rounded=0;whiteSpace=wrap;html=1;" vertex="1" parent="1">
          <mxGeometry x="550" y="770" width="140" height="70" as="geometry" />
        </mxCell>
        <mxCell id="hqPv4LxQJIXuMZ807FkV-20" style="edgeStyle=orthogonalEdgeStyle;rounded=0;orthogonalLoop=1;jettySize=auto;html=1;exitX=0.5;exitY=1;exitDx=0;exitDy=0;entryX=0.5;entryY=0;entryDx=0;entryDy=0;" edge="1" parent="1" source="hqPv4LxQJIXuMZ807FkV-21" target="hqPv4LxQJIXuMZ807FkV-9">
          <mxGeometry relative="1" as="geometry" />
        </mxCell>
        <mxCell id="hqPv4LxQJIXuMZ807FkV-21" value="&lt;b&gt;Manual duplicates merging&lt;/b&gt;&lt;div&gt;&lt;br&gt;&lt;/div&gt;&lt;div&gt;&lt;div&gt;&lt;span style=&quot;background-color: initial;&quot;&gt;Records after duplicates removed: 550&lt;/span&gt;&lt;br&gt;&lt;/div&gt;&lt;/div&gt;" style="rounded=0;whiteSpace=wrap;html=1;" vertex="1" parent="1">
          <mxGeometry x="361" y="480" width="359" height="60" as="geometry" />
        </mxCell>
        <mxCell id="hqPv4LxQJIXuMZ807FkV-22" value="Screening" style="rounded=1;whiteSpace=wrap;html=1;rotation=-90;" vertex="1" parent="1">
          <mxGeometry x="301" y="497.5" width="70" height="25" as="geometry" />
        </mxCell>
      </root>
    </mxGraphModel>
  </diagram>
</mxfile>
